<svg width="32" height="41" viewBox="0 0 32 41" fill="none" xmlns="http://www.w3.org/2000/svg">
<path d="M1.125 11.7812H30.375C30.9375 11.7812 31.5 11.2891 31.5 10.6562V7.84375C31.5 7.28125 30.9375 6.71875 30.375 6.71875H1.125C0.492188 6.71875 0 7.28125 0 7.84375V10.6562C0 11.2891 0.492188 11.7812 1.125 11.7812ZM1.125 23.0312H30.375C30.9375 23.0312 31.5 22.5391 31.5 21.9062V19.0938C31.5 18.5312 30.9375 17.9688 30.375 17.9688H1.125C0.492188 17.9688 0 18.5312 0 19.0938V21.9062C0 22.5391 0.492188 23.0312 1.125 23.0312ZM1.125 34.2812H30.375C30.9375 34.2812 31.5 33.7891 31.5 33.1562V30.3438C31.5 29.7812 30.9375 29.2188 30.375 29.2188H1.125C0.492188 29.2188 0 29.7812 0 30.3438V33.1562C0 33.7891 0.492188 34.2812 1.125 34.2812Z" fill="#DDA90D"/>
</svg>
