<svg width="70" height="56" viewBox="0 0 70 56" fill="none" xmlns="http://www.w3.org/2000/svg">
<path d="M57.3438 49H38.4375V17.418C40.5859 16.4512 42.3047 14.625 43.0566 12.2617L57.2363 7.53516C58.0957 7.21289 58.6328 6.24609 58.3105 5.38672L57.2363 2.05664C56.9141 1.19727 55.9473 0.767578 55.0879 0.982422L42.4121 5.2793C40.9082 2.70117 38.1152 0.875 35 0.875C30.166 0.875 26.4062 4.74219 26.4062 9.46875C26.4062 9.89844 26.4062 10.2207 26.5137 10.6504L12.6562 15.2695C11.7969 15.4844 11.2598 16.4512 11.582 17.418L12.6562 20.6406C12.9785 21.6074 13.9453 22.0371 14.8047 21.7148L30.166 16.666C30.5957 16.8809 31.0254 17.2031 31.5625 17.418V54.1562C31.5625 55.123 32.3145 55.875 33.2812 55.875H57.3438C58.2031 55.875 59.0625 55.123 59.0625 54.1562V50.7188C59.0625 49.8594 58.2031 49 57.3438 49ZM69.2676 33.5312C69.2676 31.8125 69.4824 32.6719 60.1367 14.0879C58.3105 10.3281 52.832 10.3281 51.0059 14.0879C41.5527 32.7793 41.875 31.9199 41.875 33.5312C41.875 38.3652 47.998 42.125 55.625 42.125C63.1445 42.125 69.375 38.3652 69.375 33.5312H69.2676ZM47.8906 31.8125L55.625 16.3438L63.3594 31.8125H47.8906ZM18.8867 27.8379C17.0605 24.0781 11.582 24.0781 9.75586 27.8379C0.302734 46.5293 0.625 45.6699 0.625 47.2812C0.625 52.1152 6.74805 55.875 14.375 55.875C21.8945 55.875 28.125 52.1152 28.125 47.2812H28.0176C28.0176 45.5625 28.2324 46.4219 18.8867 27.8379ZM6.64062 45.5625L14.375 30.0938L22.1094 45.5625H6.64062Z" fill="#F8D653"/>
</svg>
