<svg width="27" height="22" viewBox="0 0 27 22" fill="none" xmlns="http://www.w3.org/2000/svg">
<path d="M24.75 0.5H2.25C0.984375 0.5 0 1.53125 0 2.75V19.25C0 20.5156 0.984375 21.5 2.25 21.5H24.75C25.9688 21.5 27 20.5156 27 19.25V2.75C27 1.53125 25.9688 0.5 24.75 0.5ZM8.25 5C9.89062 5 11.25 6.35938 11.25 8C11.25 9.6875 9.89062 11 8.25 11C6.5625 11 5.25 9.6875 5.25 8C5.25 6.35938 6.5625 5 8.25 5ZM13.5 16.1094C13.5 16.625 13.0312 17 12.4219 17H4.03125C3.46875 17 3 16.625 3 16.1094V15.2188C3 13.7188 4.40625 12.5 6.14062 12.5H6.375C6.9375 12.7812 7.54688 12.875 8.25 12.875C8.90625 12.875 9.51562 12.7812 10.0781 12.5H10.3125C12.0469 12.5 13.5 13.7188 13.5 15.2188V16.1094ZM24 13.625C24 13.8594 23.8125 14 23.625 14H16.875C16.6406 14 16.5 13.8594 16.5 13.625V12.875C16.5 12.6875 16.6406 12.5 16.875 12.5H23.625C23.8125 12.5 24 12.6875 24 12.875V13.625ZM24 10.625C24 10.8594 23.8125 11 23.625 11H16.875C16.6406 11 16.5 10.8594 16.5 10.625V9.875C16.5 9.6875 16.6406 9.5 16.875 9.5H23.625C23.8125 9.5 24 9.6875 24 9.875V10.625ZM24 7.625C24 7.85938 23.8125 8 23.625 8H16.875C16.6406 8 16.5 7.85938 16.5 7.625V6.875C16.5 6.6875 16.6406 6.5 16.875 6.5H23.625C23.8125 6.5 24 6.6875 24 6.875V7.625Z" fill="#F8D653"/>
</svg>
