<svg width="28" height="10" viewBox="0 0 28 10" fill="none" xmlns="http://www.w3.org/2000/svg">
<path d="M26.4844 1.42188C25.9219 0.90625 25.0781 0.953125 24.4688 1.42188L20.1562 4.84375C19.6406 5.3125 18.9375 5.5 18.2812 5.5H12.75C12.3281 5.5 12 5.17188 12 4.75C12 4.375 12.3281 4 12.75 4H16.4062C17.1562 4 17.8594 3.53125 17.9531 2.78125C18.0938 1.84375 17.3906 1 16.5 1H9C7.73438 1 6.46875 1.46875 5.48438 2.26562L3.32812 4H0.75C0.328125 4 0 4.375 0 4.75V9.25C0 9.67188 0.328125 10 0.75 10H17.4375C18.1406 10 18.7969 9.8125 19.3125 9.34375L26.4375 3.67188C27.1406 3.10938 27.1875 2.03125 26.4844 1.42188Z" fill="#F8D653"/>
</svg>
